<?xml version="1.0" encoding="utf-8"?>
<!-- Generator: Adobe Illustrator 15.0.0, SVG Export Plug-In . SVG Version: 6.00 Build 0)  -->
<!DOCTYPE svg PUBLIC "-//W3C//DTD SVG 1.1//EN" "http://www.w3.org/Graphics/SVG/1.1/DTD/svg11.dtd">
<svg version="1.1" id="Layer_1" xmlns="http://www.w3.org/2000/svg" xmlns:xlink="http://www.w3.org/1999/xlink" x="0px" y="0px"
	 width="800px" height="600px" viewBox="0 0 800 600" enable-background="new 0 0 800 600" xml:space="preserve">
<path d="M385.938,279.305c0.05-0.056,0.134-0.148,0.22-0.25c0.552-0.673,0.453-1.667-0.221-2.218
	c-0.674-0.552-1.667-0.453-2.218,0.221c-0.552,0.673-0.453,1.667,0.221,2.218c0.674,0.551,1.667,0.453,2.218-0.221
	c0.019-0.019,0.181-0.231,0.36-0.63c0.253-0.838-0.222-1.723-1.061-1.975c-0.838-0.253-1.723,0.222-1.975,1.06
	c-0.252,0.838,0.222,1.723,1.061,1.976c0.838,0.252,1.722-0.222,1.975-1.061c0.071-0.597-0.522-1.724-0.679-1.838
	c-0.738-0.476-1.722-0.263-2.197,0.476c-0.475,0.738-0.262,1.722,0.476,2.197c0.738,0.476,1.722,0.263,2.197-0.476
	c0.476-0.738,0.263-1.722-0.476-2.197c-0.616-0.243-0.578-0.227-0.17-0.079c0.545,0.552,0.193,0.093-0.593-0.259
	c-0.308-0.032-0.655-0.012-0.876,0.032c-0.178,0.049-0.431,0.131-0.668,0.233c-0.15,0.076-0.464,0.227-0.682,0.361
	c-0.25,0.152-0.487,0.317-0.72,0.5c-0.23,0.188-0.458,0.396-0.725,0.648c-0.206,0.199-0.538,0.52-0.76,0.756
	c-0.297,0.297-0.533,0.554-0.797,0.843c-0.262,0.29-0.559,0.619-0.838,0.949c-0.284,0.338-0.513,0.623-0.865,1.071
	c-0.234,0.298-0.695,0.885-0.913,1.191c-0.391,0.542-0.526,0.762-0.916,1.354c-0.214,0.338-0.716,1.112-0.934,1.495
	c-0.403,0.671-0.524,0.911-0.924,1.656c-0.199,0.387-0.715,1.391-0.9,1.789c-0.382,0.818-0.392,0.873-0.827,1.909
	c-0.077,0.252-0.624,1.644-0.716,1.973c-0.36,0.982-0.435,1.257-0.644,1.974c-0.17,0.574-0.381,1.365-0.509,1.954
	c-0.182,0.692-0.321,1.361-0.423,1.896c-0.134,0.683-0.229,1.11-0.301,1.866c-0.029,0.479-0.036,1.233,0,1.856
	c0.032,0.601,0.125,1.314,0.202,1.805c0.114,0.673,0.231,1.183,0.377,1.746c0.146,0.57,0.322,1.154,0.516,1.719
	c0.192,0.576,0.395,1.068,0.63,1.678c0.187,0.467,0.473,1.162,0.665,1.621c0.253,0.605,0.449,1.061,0.675,1.578
	c0.224,0.518,0.45,1.038,0.682,1.551c0.222,0.496,0.425,0.951,0.691,1.501c0.204,0.44,0.528,1.098,0.72,1.473
	c0.313,0.575,0.464,0.853,0.816,1.419c0.214,0.35,0.666,1.033,0.898,1.358c0.389,0.528,0.481,0.658,1.02,1.272
	c0.174,0.199,0.972,1.027,1.123,1.178c0.396,0.387,1.03,0.379,1.417-0.018c0.387-0.396,0.379-1.029-0.017-1.416
	s-1.03-0.379-1.417,0.018c-0.387,0.396-0.379,1.029,0.017,1.416c0.598,0.584,0.531,0.527,1.198,1.099
	c0.421,0.36,1.053,0.311,1.413-0.11c0.36-0.42,0.311-1.053-0.109-1.412c-0.42-0.36-1.053-0.312-1.413,0.109
	c-0.36,0.42-0.311,1.053,0.109,1.413c0.144,0.121,1.131,0.911,1.282,1.023c0.799,0.609,0.882,0.681,1.585,1.148
	c0.369,0.222,1.167,0.687,1.718,0.976c0.611,0.318,1.133,0.58,1.824,0.874c0.562,0.219,1.118,0.421,1.987,0.686
	c0.509,0.134,1.721,0.45,2.171,0.514c0.971,0.211,1.246,0.207,2.047,0.3c0.556,0.062,1.574,0.146,2.16,0.182
	c0.879,0.058,1.233,0.069,2.265,0.1c0.485,0.008,1.811,0.029,2.322,0.016c1.032-0.018,1.472-0.049,2.305-0.109
	c0.672-0.038,1.629-0.115,2.259-0.189c0.838-0.098,1.235-0.143,2.189-0.333c0.471-0.091,1.621-0.373,2.108-0.515
	c0.89-0.267,1.309-0.428,2.02-0.711c0.581-0.236,1.382-0.605,1.916-0.868c0.697-0.347,1.013-0.515,1.828-0.983
	c0.377-0.199,1.462-0.848,1.768-1.029c0.827-0.539,0.867-0.568,1.653-1.148c0.263-0.186,1.318-1.004,1.546-1.185
	c0.357-0.301,0.403-0.834,0.103-1.191c-0.301-0.356-0.834-0.403-1.19-0.103c-0.357,0.301-0.404,0.835-0.104,1.191
	c0.301,0.357,0.835,0.403,1.191,0.103c0.73-0.601,0.621-0.46,1.439-1.257c0.346-0.342,0.349-0.9,0.006-1.246s-0.9-0.348-1.246-0.006
	c-0.346,0.344-0.349,0.901-0.006,1.247s0.9,0.349,1.246,0.005c0.086-0.084,1.206-1.297,1.301-1.414
	c0.3-0.384,0.231-0.939-0.152-1.238c-0.385-0.301-0.939-0.232-1.239,0.152s-0.231,0.939,0.152,1.238
	c0.384,0.301,0.939,0.232,1.239-0.152c0.795-0.985,0.816-1.059,1.316-1.83c0.271-0.435,0.139-1.008-0.296-1.279
	c-0.435-0.271-1.007-0.139-1.278,0.297c-0.271,0.435-0.14,1.007,0.295,1.278c0.436,0.271,1.008,0.14,1.279-0.296
	c0.262-0.438,0.768-1.335,1.09-1.992c0.346-0.717,0.572-1.25,0.926-2.148c0.213-0.562,0.623-1.729,0.783-2.264
	c0.305-1.003,0.405-1.414,0.629-2.396c0.139-0.526,0.375-1.696,0.457-2.123c0.074-0.398-0.189-0.781-0.587-0.854
	c-0.398-0.073-0.781,0.189-0.854,0.587c-0.074,0.398,0.189,0.781,0.588,0.855c0.398,0.073,0.78-0.189,0.854-0.588
	c0.184-0.976,0.178-0.9,0.354-2.163c0.056-0.405-0.228-0.78-0.633-0.835c-0.405-0.057-0.78,0.227-0.836,0.633
	c-0.056,0.405,0.228,0.779,0.634,0.835c0.405,0.056,0.779-0.228,0.835-0.633c0.038-0.166,0.265-2.01,0.292-2.146
	c0.041-0.432-0.274-0.815-0.706-0.857c-0.431-0.041-0.815,0.275-0.856,0.707s0.274,0.814,0.706,0.855
	c0.432,0.042,0.815-0.273,0.856-0.705c0.135-1.269,0.113-0.877,0.2-2.103c0.028-0.454-0.317-0.844-0.772-0.872
	c-0.453-0.027-0.844,0.318-0.871,0.772s0.318,0.845,0.771,0.872c0.455,0.027,0.845-0.319,0.872-0.772
	c0.003-0.122,0.076-1.868,0.072-2.018c0.001-0.447-0.36-0.81-0.807-0.811c-0.446-0.001-0.81,0.36-0.811,0.807
	c-0.001,0.446,0.36,0.81,0.806,0.811c0.447,0.001,0.811-0.359,0.812-0.806c0.023-1.263,0.038-1.184-0.016-2.236
	c-0.034-0.479-0.45-0.84-0.929-0.806c-0.479,0.034-0.84,0.45-0.806,0.929s0.449,0.84,0.929,0.806
	c0.479-0.034,0.84-0.449,0.806-0.928c-0.028-0.366-0.171-1.693-0.235-2.113c-0.072-0.473-0.514-0.798-0.986-0.726
	s-0.797,0.513-0.726,0.986c0.071,0.473,0.513,0.798,0.985,0.726c0.474-0.072,0.799-0.514,0.727-0.986
	c-0.152-0.93-0.164-0.98-0.432-2.027c-0.109-0.446-0.559-0.719-1.005-0.61s-0.719,0.559-0.61,1.004
	c0.109,0.446,0.559,0.719,1.005,0.61s0.719-0.559,0.61-1.004c-0.061-0.269-0.488-1.738-0.558-1.959
	c-0.155-0.444-0.642-0.678-1.087-0.521c-0.443,0.156-0.677,0.642-0.521,1.086c0.156,0.444,0.643,0.678,1.087,0.521
	c0.444-0.156,0.677-0.642,0.521-1.086c-0.364-1.028-0.31-0.914-0.79-1.912c-0.2-0.419-0.703-0.597-1.122-0.397
	s-0.597,0.703-0.397,1.123c0.201,0.419,0.703,0.597,1.123,0.396c0.42-0.2,0.598-0.703,0.396-1.122
	c-0.064-0.15-0.791-1.448-0.85-1.56c-0.25-0.41-0.784-0.539-1.193-0.289s-0.538,0.785-0.288,1.194s0.784,0.538,1.194,0.288
	c0.408-0.25,0.537-0.785,0.287-1.193c-0.51-0.867-0.315-0.592-0.92-1.491c-0.285-0.413-0.852-0.516-1.264-0.231
	s-0.516,0.851-0.23,1.263c0.285,0.412,0.851,0.516,1.264,0.23c0.412-0.285,0.516-0.851,0.23-1.263
	c-0.052-0.09-0.963-1.345-1.01-1.421c-0.316-0.408-0.904-0.481-1.312-0.165c-0.408,0.317-0.482,0.905-0.164,1.313
	c0.316,0.408,0.904,0.481,1.312,0.164c0.408-0.317,0.48-0.904,0.164-1.312c-0.647-0.859-0.375-0.532-1.041-1.345
	c-0.342-0.409-0.951-0.464-1.361-0.122c-0.409,0.342-0.464,0.951-0.121,1.361c0.342,0.409,0.951,0.464,1.36,0.122
	c0.409-0.342,0.464-0.952,0.122-1.361c-0.05-0.065-1.026-1.195-1.096-1.276c-0.37-0.393-0.988-0.411-1.381-0.041
	c-0.394,0.371-0.412,0.989-0.041,1.382c0.369,0.393,0.988,0.411,1.381,0.041c0.393-0.37,0.411-0.988,0.041-1.381
	c-0.764-0.832-0.646-0.715-1.313-1.358c-0.414-0.385-1.062-0.361-1.447,0.053c-0.386,0.415-0.362,1.062,0.052,1.448
	c0.415,0.385,1.062,0.361,1.448-0.053c0.386-0.414,0.362-1.062-0.053-1.448c-0.188-0.168-1.126-0.986-1.36-1.176
	c-0.429-0.357-1.066-0.299-1.423,0.13c-0.356,0.428-0.299,1.065,0.13,1.422c0.428,0.357,1.064,0.299,1.422-0.13
	c0.357-0.428,0.299-1.065-0.129-1.422c-0.66-0.545-0.7-0.572-1.36-1.059c-0.442-0.33-1.068-0.238-1.397,0.205
	c-0.33,0.443-0.238,1.069,0.204,1.398s1.069,0.238,1.398-0.205c0.329-0.442,0.237-1.068-0.205-1.398
	c-0.233-0.181-1.142-0.825-1.354-0.973c-0.469-0.311-1.1-0.183-1.41,0.285s-0.184,1.1,0.285,1.41c0.468,0.311,1.1,0.183,1.41-0.285
	c0.311-0.468,0.183-1.1-0.285-1.41c-0.672-0.439-0.6-0.392-1.377-0.842c-0.475-0.28-1.086-0.122-1.365,0.352
	c-0.28,0.475-0.123,1.086,0.352,1.366c0.475,0.28,1.086,0.122,1.366-0.353s0.122-1.086-0.353-1.366
	c-0.078-0.066-1.068-0.622-1.119-0.668c-0.514-0.268-1.146-0.068-1.414,0.445c-0.268,0.514-0.068,1.147,0.445,1.415
	s1.146,0.068,1.414-0.445s0.068-1.147-0.445-1.415c-0.689-0.375-0.429-0.261-1.113-0.603c-0.547-0.259-1.199-0.025-1.459,0.521
	c-0.259,0.547-0.025,1.2,0.521,1.459s1.2,0.025,1.459-0.521s0.025-1.2-0.521-1.459c-0.057-0.037-1.053-0.497-1.127-0.538
	c-0.573-0.236-1.23,0.037-1.467,0.611c-0.236,0.573,0.037,1.23,0.611,1.467c0.573,0.236,1.229-0.037,1.467-0.611
	c0.236-0.573-0.037-1.23-0.611-1.467c-0.66-0.295-0.443-0.229-1.121-0.487c-0.607-0.218-1.276,0.099-1.493,0.707
	c-0.218,0.607,0.099,1.276,0.706,1.494c0.608,0.217,1.277-0.099,1.494-0.707c0.217-0.607-0.1-1.276-0.707-1.493
	c-0.076-0.027-1.072-0.349-1.137-0.368c-0.616-0.189-1.27,0.157-1.458,0.773c-0.189,0.616,0.157,1.269,0.772,1.458
	c0.616,0.189,1.27-0.157,1.458-0.773c0.189-0.616-0.157-1.269-0.772-1.458c-0.785-0.235-0.652-0.193-1.34-0.373
	c-0.627-0.161-1.268,0.217-1.429,0.845c-0.161,0.628,0.217,1.268,0.845,1.429c0.627,0.161,1.268-0.217,1.429-0.845
	s-0.217-1.268-0.845-1.429c-0.16-0.04-1.138-0.275-1.305-0.312c-0.63-0.146-1.26,0.246-1.406,0.875
	c-0.146,0.63,0.246,1.259,0.876,1.405s1.259-0.246,1.405-0.875c0.146-0.63-0.246-1.259-0.875-1.405
	c-0.697-0.153-0.551-0.114-1.31-0.265c-0.624-0.129-1.233,0.271-1.362,0.895c-0.13,0.624,0.271,1.234,0.895,1.363
	c0.623,0.129,1.233-0.271,1.363-0.895c0.129-0.624-0.271-1.233-0.896-1.363c-0.102-0.017-1.208-0.232-1.308-0.247
	c-0.619-0.119-1.217,0.287-1.336,0.906c-0.118,0.619,0.287,1.216,0.906,1.335c0.619,0.118,1.217-0.288,1.335-0.906
	s-0.287-1.216-0.905-1.335c-0.743-0.138-0.532-0.098-1.297-0.228c-0.608-0.108-1.19,0.297-1.299,0.906s0.297,1.191,0.907,1.3
	c0.608,0.109,1.191-0.297,1.299-0.906c0.109-0.609-0.297-1.191-0.906-1.3c-0.068-0.017-1.027-0.177-1.099-0.191
	c-0.621-0.084-1.192,0.352-1.276,0.972c-0.083,0.621,0.352,1.192,0.973,1.276c0.621,0.084,1.192-0.351,1.275-0.972
	c0.084-0.621-0.351-1.192-0.972-1.276c-0.737-0.118-0.699-0.123-1.239-0.193c-0.651-0.064-1.231,0.412-1.295,1.063
	c-0.064,0.651,0.412,1.23,1.063,1.295c0.651,0.064,1.23-0.412,1.294-1.063c0.064-0.651-0.412-1.23-1.062-1.294
	c-0.245-0.032-0.895-0.092-1.215-0.122c-0.458-0.033-0.616-0.043-1.159-0.068c-0.22-0.007-0.944-0.026-1.125-0.029
	c-0.542-0.004-0.612-0.004-1.114,0.006c-0.186-0.008-0.792,0.003-0.961,0.004c-0.672,0.049-1.176,0.634-1.127,1.306
	s0.634,1.176,1.306,1.127c0.672-0.049,1.177-0.634,1.127-1.306s-0.634-1.177-1.306-1.127c-0.388,0.021-0.406-0.002-0.972,0.079
	c-0.681,0.11-1.145,0.751-1.035,1.433c0.11,0.681,0.751,1.145,1.433,1.035c0.682-0.11,1.145-0.751,1.035-1.433
	c-0.11-0.681-0.751-1.145-1.433-1.035c-0.096,0.009-0.891,0.168-0.999,0.188c-0.678,0.185-1.077,0.885-0.892,1.562
	c0.185,0.678,0.884,1.077,1.562,0.892s1.077-0.884,0.892-1.562s-0.884-1.077-1.562-0.892c-0.481,0.131-0.493,0.125-1.006,0.329
	c-0.655,0.265-0.972,1.01-0.707,1.665c0.264,0.655,1.009,0.972,1.665,0.707c0.655-0.265,0.972-1.01,0.707-1.665
	c-0.264-0.655-1.01-0.972-1.665-0.708c-0.098,0.05-0.88,0.43-0.98,0.492c-0.606,0.335-0.827,1.099-0.492,1.705
	c0.335,0.607,1.099,0.827,1.705,0.492c0.607-0.335,0.827-1.099,0.492-1.705c-0.335-0.607-1.099-0.827-1.705-0.492
	c-0.636,0.354-0.664,0.398-1.071,0.665c-0.581,0.391-0.734,1.179-0.343,1.76c0.392,0.581,1.18,0.734,1.761,0.343
	c0.581-0.391,0.734-1.179,0.343-1.76c-0.392-0.581-1.18-0.734-1.76-0.343c-0.186,0.134-0.739,0.535-0.968,0.716
	c-0.392,0.309-0.467,0.392-0.887,0.748c-0.146,0.116-0.749,0.617-0.85,0.699c-0.516,0.433-0.583,1.202-0.151,1.717
	c0.433,0.516,1.202,0.583,1.717,0.151c0.516-0.433,0.583-1.202,0.151-1.717c-0.433-0.516-1.202-0.583-1.717-0.151
	c-0.444,0.374-0.358,0.312-0.777,0.661c-0.515,0.426-0.587,1.189-0.161,1.705c0.426,0.515,1.189,0.587,1.705,0.161
	c0.515-0.426,0.587-1.189,0.161-1.705c-0.426-0.516-1.189-0.588-1.705-0.162c-0.044,0.024-0.593,0.46-0.602,0.453
	c-0.547,0.412-0.658,1.189-0.246,1.736s1.189,0.657,1.736,0.246c0.547-0.412,0.657-1.189,0.246-1.736
	c-0.412-0.547-1.189-0.658-1.736-0.246c-0.417,0.292-0.349,0.209-0.704,0.425c-0.595,0.406-0.749,1.217-0.343,1.813
	c0.406,0.595,1.218,0.749,1.813,0.343c0.595-0.406,0.749-1.218,0.343-1.813l0,0c-0.406-0.595-1.218-0.749-1.813-0.343
	c-0.13,0.082-0.477,0.3-0.648,0.397c-0.233,0.133-0.354,0.189-0.595,0.315c-0.165,0.083-0.412,0.208-0.53,0.258
	c-0.181,0.087-0.22,0.095-0.432,0.184c-0.056,0.007-0.243,0.066-0.285,0.065c-0.733,0.292-1.09,1.124-0.797,1.856
	s1.124,1.09,1.856,0.798c0.733-0.292,1.09-1.124,0.798-1.857s-1.124-1.09-1.857-0.797c-0.115,0.03-0.121,0.011-0.268,0.056
	c-0.75,0.323-1.095,1.192-0.772,1.942c0.323,0.749,1.193,1.095,1.942,0.771c0.749-0.323,1.094-1.193,0.771-1.942
	c-0.323-0.75-1.192-1.095-1.941-0.771c-0.074,0.017-0.206,0.063-0.246,0.066c-0.754,0.371-1.064,1.282-0.694,2.036
	c0.37,0.753,1.282,1.064,2.036,0.694c0.754-0.37,1.064-1.282,0.694-2.036s-1.282-1.064-2.036-0.694
	c0.052-0.034-0.249,0.105-0.338,0.153c-0.699,0.504-0.856,1.479-0.353,2.178c0.504,0.699,1.479,0.856,2.178,0.353
	s0.856-1.479,0.353-2.178c-0.504-0.699-1.479-0.857-2.178-0.353c-0.191,0.151-0.266,0.216-0.45,0.43
	c-0.491,0.723-0.302,1.708,0.421,2.198s1.708,0.302,2.198-0.421c0.491-0.723,0.302-1.707-0.421-2.198s-1.708-0.302-2.198,0.421
	c0.004-0.019-0.247,1.291-0.212,0.38c-0.305,0.829,0.12,1.747,0.949,2.052c0.828,0.304,1.747-0.12,2.051-0.949
	c0.305-0.829-0.12-1.747-0.948-2.052c-0.829-0.304-1.747,0.12-2.052,0.949c-0.05,0.151-0.067,0.211-0.108,0.436
	c-0.087,0.882,0.557,1.668,1.44,1.756c0.882,0.087,1.668-0.557,1.756-1.439c0.087-0.883-0.557-1.669-1.44-1.756
	c-0.882-0.087-1.668,0.558-1.756,1.44c-0.013,0.193,0,0.375-0.012,0.222c0,0.889,0.721,1.61,1.61,1.61c0.889,0,1.61-0.721,1.61-1.61
	s-0.721-1.61-1.61-1.61c-0.89,0-1.61,0.721-1.61,1.61c0.012,0.003,0.024,0.036,0.036,0.053c0,0.869,0.705,1.574,1.574,1.574
	c0.869,0,1.574-0.705,1.574-1.574c0.012-0.018,0.024-0.05,0.037-0.053c-0.013-0.229-0.007-0.029-0.013,0.095
	c-0.04,0.22-0.039,0.203-0.122,0.438c0.09-1.054-0.188,0.288-0.194,0.29c-0.121,0.126-0.1,0.094-0.364,0.295
	c0.087-0.076-0.249,0.091-0.062-0.01c-0.005-0.014,0.081-0.071,0.057-0.076c0.049-0.04,0.022-0.042,0.183-0.125
	c0.03-0.029,0.229-0.127,0.323-0.187c0.17-0.078,0.301-0.135,0.546-0.261c0.166-0.092,0.445-0.252,0.618-0.357
	c0.223-0.134,0.394-0.236,0.663-0.409c0.207-0.134,0.58-0.384,0.737-0.499c0.294-0.227,0.326-0.269,0.731-0.604
	c0.063-0.061,0.605-0.516,0.644-0.56c0.441-0.362,0.369-0.303,0.802-0.662c0.099-0.086,0.694-0.587,0.816-0.69
	c0.447-0.348,0.476-0.363,0.855-0.633c0.198-0.141,0.731-0.509,0.887-0.606c0.513-0.354,0.322-0.26,0.875-0.576
	c-0.034,0.025,0.743-0.333,0.711-0.31c0.603-0.247,0.089-0.076,0.721-0.248c-0.036,0,0.744-0.171,0.733-0.175
	c0.538-0.097,0.235-0.066,0.749-0.113c0.092-0.017,0.667-0.047,0.806-0.059c0.479,0,0.484,0.011,1.042,0.027
	c0.166,0.005,0.88,0.026,1.072,0.035c0.527,0.022,0.636,0.029,1.094,0.06c0.303,0.013,0.934,0.056,1.149,0.07
	c0.587,0.041,0.44,0.001,1.166,0.083c0.019-0.002,0.974,0.147,1.01,0.149c0.744,0.14,0.48,0.104,1.258,0.262
	c0.09,0.021,1.191,0.244,1.271,0.264c0.77,0.166,0.561,0.125,1.254,0.289c0.146,0.035,1.115,0.27,1.243,0.304
	c0.735,0.187,0.489,0.11,1.253,0.334c0.021,0.007,1.012,0.328,1.018,0.331c0.734,0.247,0.31,0.066,1.049,0.363
	c0.025,0,1.024,0.44,1.059,0.446c0.729,0.328,0.354,0.124,1.08,0.482c0.035-0.001,1.037,0.522,1.069,0.523
	c0.773,0.464,0.579,0.354,1.267,0.82c0.188,0.117,1.086,0.738,1.287,0.88c0.658,0.495,0.606,0.458,1.262,1.009
	c0.195,0.169,1.111,0.982,1.258,1.125c0.736,0.662,0.51,0.398,1.287,1.199c0.023,0.018,1.002,1.14,1.031,1.17
	c0.713,0.836,0.365,0.383,1.047,1.253c0.035,0.03,0.959,1.271,0.998,1.312c0.643,0.908,0.375,0.47,0.93,1.359
	c0.048,0.062,0.785,1.341,0.812,1.383c0.479,1.008,0.33,0.678,0.701,1.75c0.061,0.147,0.496,1.592,0.551,1.79
	c0.242,1.04,0.202,0.94,0.335,1.893c0.054,0.363,0.192,1.659,0.213,1.976c0.097,1.074,0.116,0.85,0.133,2.109
	c-0.005,0.086-0.088,1.825-0.099,1.923c-0.062,1.251-0.009,0.773-0.119,2.052c0.004,0.111-0.193,1.955-0.198,2.094
	c-0.171,1.262-0.147,1.111-0.327,2.099c-0.073,0.413-0.298,1.556-0.416,2.03c-0.271,0.947-0.401,1.269-0.756,2.248
	c-0.181,0.492-0.608,1.613-0.836,2.124c-0.371,0.865-0.588,1.308-0.948,1.985c-0.312,0.596-0.806,1.428-1.062,1.82
	c-0.514,0.854-0.389,0.756-1.131,1.723c-0.008,0.015-1.121,1.221-1.154,1.254c-0.795,0.806-0.523,0.556-1.286,1.214
	c-0.181,0.163-1.21,0.981-1.435,1.158c-0.791,0.59-0.75,0.571-1.566,1.11c-0.257,0.188-1.309,0.851-1.639,1.059
	c-0.805,0.459-1.061,0.592-1.75,0.932c-0.512,0.256-1.271,0.611-1.812,0.836c-0.705,0.3-1.03,0.445-1.877,0.717
	c-0.43,0.143-1.537,0.432-1.962,0.529c-0.924,0.203-1.239,0.254-2.071,0.37c-0.595,0.081-1.519,0.168-2.172,0.216
	c-0.828,0.045-1.218,0.059-2.232,0.061c-0.479-0.005-1.786-0.044-2.258-0.07c-1.026-0.043-1.339-0.064-2.208-0.136
	c-0.567-0.05-1.557-0.148-2.078-0.224c-0.846-0.111-0.991-0.105-1.894-0.316c-0.358-0.117-1.504-0.491-1.941-0.679
	c-0.802-0.302-1.239-0.521-1.762-0.785c-0.628-0.293-1.057-0.536-1.647-0.872c-0.495-0.282-1.236-0.741-1.563-0.963
	c-0.729-0.443-0.719-0.41-1.527-0.982c-0.093-0.069-1.068-0.851-1.166-0.936c-0.673-0.576-0.488-0.41-1.104-1.01
	c-0.119-0.113-0.903-0.92-1.028-1.06c-0.524-0.593-0.521-0.599-0.919-1.136c-0.208-0.27-0.644-0.906-0.848-1.218
	c-0.344-0.537-0.463-0.741-0.781-1.308c-0.199-0.333-0.533-0.95-0.75-1.361c-0.264-0.523-0.463-0.947-0.693-1.438
	c-0.23-0.499-0.454-1.003-0.68-1.517c-0.225-0.516-0.416-0.956-0.667-1.555c-0.19-0.451-0.472-1.135-0.656-1.594
	c-0.259-0.621-0.461-1.067-0.648-1.582c-0.186-0.529-0.344-1.046-0.485-1.582c-0.142-0.543-0.241-0.97-0.348-1.6
	c-0.086-0.462-0.184-1.096-0.224-1.625c-0.041-0.559-0.041-1.229-0.021-1.658c0.007-0.705,0.029-1.041,0.103-1.734
	c0.058-0.523,0.146-1.146,0.28-1.81c0.138-0.552,0.355-1.295,0.536-1.84c0.235-0.704,0.314-0.901,0.697-1.859
	c0.137-0.27,0.738-1.624,0.861-1.822c0.472-1.004,0.489-0.966,0.92-1.776c0.194-0.358,0.723-1.332,0.933-1.685
	c0.419-0.735,0.521-0.9,0.929-1.539c0.218-0.322,0.73-1.052,0.961-1.358c0.414-0.572,0.534-0.717,0.938-1.224
	c0.208-0.257,0.663-0.803,0.898-1.069c0.362-0.406,0.579-0.624,0.881-0.929c0.277-0.282,0.565-0.557,0.844-0.819
	c0.28-0.266,0.494-0.463,0.781-0.713c0.216-0.175,0.531-0.425,0.73-0.564c0.271-0.197,0.429-0.292,0.62-0.398
	c0.19-0.11,0.272-0.139,0.472-0.222c0.078-0.02,0.271-0.075,0.358-0.083c0.156-0.04,0.095-0.005,0.189-0.004
	c-0.012,0.008-0.098,0.019-0.287,0.011c-0.621-0.319-0.962-0.666-0.342-0.071c0.477,0.188,0.596,0.201,0.008-0.024
	c-0.113-0.085-0.688-1.191-0.63-1.746c0.166-0.353,0.273-0.502,0.241-0.459c-0.028,0.037-0.083,0.098-0.157,0.183
	c-0.572,0.655-0.504,1.649,0.15,2.221S385.366,279.959,385.938,279.305z"/>
</svg>
